<mxfile host="app.diagrams.net" modified="2024-04-28T00:59:03.391Z" agent="Mozilla/5.0 (Windows NT 10.0; Win64; x64; rv:125.0) Gecko/20100101 Firefox/125.0" etag="cOL9b6vZoE7HFzhzXE37" version="24.3.1" type="device">
  <diagram name="ページ1" id="6O8cq4Rfigk1k-ii5kAo">
    <mxGraphModel dx="2668" dy="744" grid="1" gridSize="10" guides="1" tooltips="1" connect="1" arrows="1" fold="1" page="1" pageScale="1" pageWidth="827" pageHeight="1169" math="0" shadow="0">
      <root>
        <mxCell id="0" />
        <object label="ネットワーク" id="1">
          <mxCell style="locked=1;" parent="0" />
        </object>
        <mxCell id="ExSx5SIZApUU_Iw7rpWn-4" value="" style="endArrow=oval;html=1;rounded=0;startArrow=oval;startFill=1;endFill=1;strokeWidth=4;fillColor=#a20025;strokeColor=#6F0000;" parent="1" edge="1">
          <mxGeometry width="50" height="50" relative="1" as="geometry">
            <mxPoint x="-685" y="483" as="sourcePoint" />
            <mxPoint x="760" y="480" as="targetPoint" />
          </mxGeometry>
        </mxCell>
        <mxCell id="ExSx5SIZApUU_Iw7rpWn-5" value="" style="endArrow=oval;html=1;rounded=0;startArrow=oval;startFill=1;endFill=1;strokeWidth=4;fillColor=#008a00;strokeColor=#005700;" parent="1" edge="1">
          <mxGeometry width="50" height="50" relative="1" as="geometry">
            <mxPoint x="-685" y="46" as="sourcePoint" />
            <mxPoint x="760" y="46" as="targetPoint" />
          </mxGeometry>
        </mxCell>
        <mxCell id="ExSx5SIZApUU_Iw7rpWn-10" value="172.16.0.0/12" style="text;html=1;align=center;verticalAlign=middle;resizable=0;points=[];autosize=1;strokeColor=none;fillColor=none;" parent="1" vertex="1">
          <mxGeometry x="-800" y="30" width="100" height="30" as="geometry" />
        </mxCell>
        <mxCell id="ExSx5SIZApUU_Iw7rpWn-11" value="10.0.0.0/24" style="text;html=1;align=center;verticalAlign=middle;resizable=0;points=[];autosize=1;strokeColor=none;fillColor=none;" parent="1" vertex="1">
          <mxGeometry x="-790" y="468" width="80" height="30" as="geometry" />
        </mxCell>
        <mxCell id="ExSx5SIZApUU_Iw7rpWn-20" value="" style="endArrow=none;html=1;rounded=0;startArrow=none;startFill=0;endFill=0;strokeWidth=4;fillColor=#008a00;strokeColor=#005700;exitX=0.5;exitY=1;exitDx=0;exitDy=0;" parent="1" edge="1">
          <mxGeometry width="50" height="50" relative="1" as="geometry">
            <mxPoint x="-405" y="46" as="sourcePoint" />
            <mxPoint x="-405" y="126" as="targetPoint" />
          </mxGeometry>
        </mxCell>
        <mxCell id="ExSx5SIZApUU_Iw7rpWn-25" value="" style="endArrow=none;html=1;rounded=0;startArrow=none;startFill=0;endFill=0;strokeWidth=4;fillColor=#a20025;strokeColor=#6F0000;exitX=0.5;exitY=1;exitDx=0;exitDy=0;" parent="1" edge="1">
          <mxGeometry width="50" height="50" relative="1" as="geometry">
            <mxPoint x="-405" y="403" as="sourcePoint" />
            <mxPoint x="-405" y="483" as="targetPoint" />
          </mxGeometry>
        </mxCell>
        <object label="マシン" id="ExSx5SIZApUU_Iw7rpWn-6">
          <mxCell style="locked=1;" parent="0" />
        </object>
        <mxCell id="ExSx5SIZApUU_Iw7rpWn-7" value="" style="rounded=1;whiteSpace=wrap;html=1;fillColor=#dae8fc;strokeColor=#6c8ebf;align=center;horizontal=1;" parent="ExSx5SIZApUU_Iw7rpWn-6" vertex="1">
          <mxGeometry x="-605" y="126" width="1285" height="270" as="geometry" />
        </mxCell>
        <mxCell id="ExSx5SIZApUU_Iw7rpWn-26" value="eth1" style="rounded=0;whiteSpace=wrap;html=1;fillColor=#e3c800;fontColor=#000000;strokeColor=#B09500;" parent="ExSx5SIZApUU_Iw7rpWn-6" vertex="1">
          <mxGeometry x="-445" y="386" width="80" height="20" as="geometry" />
        </mxCell>
        <mxCell id="ExSx5SIZApUU_Iw7rpWn-32" value="eth0" style="rounded=0;whiteSpace=wrap;html=1;fillColor=#e3c800;fontColor=#000000;strokeColor=#B09500;" parent="ExSx5SIZApUU_Iw7rpWn-6" vertex="1">
          <mxGeometry x="-446.25" y="116" width="80" height="20" as="geometry" />
        </mxCell>
        <mxCell id="ExSx5SIZApUU_Iw7rpWn-33" value="10.0.0.11" style="text;html=1;align=center;verticalAlign=middle;resizable=0;points=[];autosize=1;strokeColor=none;fillColor=none;" parent="ExSx5SIZApUU_Iw7rpWn-6" vertex="1">
          <mxGeometry x="-395" y="416" width="70" height="30" as="geometry" />
        </mxCell>
        <mxCell id="ExSx5SIZApUU_Iw7rpWn-36" value="172.16.0.11" style="text;html=1;align=center;verticalAlign=middle;resizable=0;points=[];autosize=1;strokeColor=none;fillColor=none;" parent="ExSx5SIZApUU_Iw7rpWn-6" vertex="1">
          <mxGeometry x="-570" y="296" width="90" height="30" as="geometry" />
        </mxCell>
        <mxCell id="21zLahzKs5m0MUraH8DA-1" value="&lt;font style=&quot;font-size: 17px;&quot;&gt;Controller Node&lt;/font&gt;" style="text;html=1;align=center;verticalAlign=middle;resizable=0;points=[];autosize=1;strokeColor=none;fillColor=none;" parent="ExSx5SIZApUU_Iw7rpWn-6" vertex="1">
          <mxGeometry x="510" y="136" width="140" height="30" as="geometry" />
        </mxCell>
        <mxCell id="21zLahzKs5m0MUraH8DA-3" value="" style="endArrow=none;html=1;rounded=0;startArrow=none;startFill=0;endFill=0;strokeWidth=4;fillColor=#008a00;strokeColor=#005700;exitX=0.5;exitY=1;exitDx=0;exitDy=0;entryX=0.5;entryY=0;entryDx=0;entryDy=0;" parent="ExSx5SIZApUU_Iw7rpWn-6" source="ExSx5SIZApUU_Iw7rpWn-32" target="dvhGGXUbRXbrGdrFJpqn-1" edge="1">
          <mxGeometry width="50" height="50" relative="1" as="geometry">
            <mxPoint x="-485" y="136" as="sourcePoint" />
            <mxPoint x="-485" y="216" as="targetPoint" />
          </mxGeometry>
        </mxCell>
        <mxCell id="dvhGGXUbRXbrGdrFJpqn-10" value="" style="group" parent="ExSx5SIZApUU_Iw7rpWn-6" vertex="1" connectable="0">
          <mxGeometry x="-567.5" y="176" width="354.5" height="125" as="geometry" />
        </mxCell>
        <mxCell id="21zLahzKs5m0MUraH8DA-2" value="br-provider" style="rounded=0;whiteSpace=wrap;html=1;fillColor=#B39D00;fontColor=#000000;strokeColor=#B09500;" parent="dvhGGXUbRXbrGdrFJpqn-10" vertex="1">
          <mxGeometry width="322.5" height="110" as="geometry" />
        </mxCell>
        <mxCell id="dvhGGXUbRXbrGdrFJpqn-1" value="&lt;font color=&quot;#ffffff&quot;&gt;eth0&lt;/font&gt;" style="rounded=0;whiteSpace=wrap;html=1;fillColor=#6E6000;fontColor=#000000;strokeColor=#B09500;" parent="dvhGGXUbRXbrGdrFJpqn-10" vertex="1">
          <mxGeometry x="121.25" width="80" height="20" as="geometry" />
        </mxCell>
        <mxCell id="dvhGGXUbRXbrGdrFJpqn-7" value="&lt;font color=&quot;#ffffff&quot;&gt;phy-br-provider&lt;/font&gt;" style="rounded=0;whiteSpace=wrap;html=1;fillColor=#6E6000;fontColor=#000000;strokeColor=#B09500;" parent="dvhGGXUbRXbrGdrFJpqn-10" vertex="1">
          <mxGeometry x="182.5" y="90" width="120" height="20" as="geometry" />
        </mxCell>
        <mxCell id="dvhGGXUbRXbrGdrFJpqn-9" value="&lt;font color=&quot;#ffffff&quot;&gt;br-provider&lt;/font&gt;" style="rounded=0;whiteSpace=wrap;html=1;fillColor=#6E6000;fontColor=#000000;strokeColor=#B09500;" parent="dvhGGXUbRXbrGdrFJpqn-10" vertex="1">
          <mxGeometry x="22.5" y="90" width="120" height="20" as="geometry" />
        </mxCell>
        <mxCell id="3zyf-pbMNHXWRjyrZosJ-2" value="&lt;div&gt;tag 100&lt;br&gt;&lt;/div&gt;&lt;div&gt;&amp;nbsp;&amp;nbsp;&amp;nbsp; ↑&lt;br&gt;&lt;/div&gt;&lt;div&gt;tag 2&lt;br&gt;&lt;/div&gt;" style="text;html=1;whiteSpace=wrap;overflow=hidden;rounded=1;fillColor=#ffe6cc;strokeColor=#d79b00;arcSize=12;" vertex="1" parent="dvhGGXUbRXbrGdrFJpqn-10">
          <mxGeometry x="287.5" y="75" width="52" height="50" as="geometry" />
        </mxCell>
        <mxCell id="dvhGGXUbRXbrGdrFJpqn-13" value="br-int" style="rounded=0;whiteSpace=wrap;html=1;fillColor=#B39D00;fontColor=#000000;strokeColor=#B09500;" parent="ExSx5SIZApUU_Iw7rpWn-6" vertex="1">
          <mxGeometry x="-175" y="176" width="322.5" height="110" as="geometry" />
        </mxCell>
        <mxCell id="dvhGGXUbRXbrGdrFJpqn-15" value="&lt;font color=&quot;#ffffff&quot;&gt;br-int&lt;/font&gt;" style="rounded=0;whiteSpace=wrap;html=1;fillColor=#6E6000;fontColor=#000000;strokeColor=#B09500;" parent="ExSx5SIZApUU_Iw7rpWn-6" vertex="1">
          <mxGeometry x="7.5" y="266" width="120" height="20" as="geometry" />
        </mxCell>
        <mxCell id="dvhGGXUbRXbrGdrFJpqn-16" value="&lt;font color=&quot;#ffffff&quot;&gt;int-br-provider&lt;/font&gt;" style="rounded=0;whiteSpace=wrap;html=1;fillColor=#6E6000;fontColor=#000000;strokeColor=#B09500;" parent="ExSx5SIZApUU_Iw7rpWn-6" vertex="1">
          <mxGeometry x="-152.5" y="266" width="120" height="20" as="geometry" />
        </mxCell>
        <mxCell id="dvhGGXUbRXbrGdrFJpqn-18" value="&lt;font color=&quot;#ffffff&quot;&gt;br-provider&lt;/font&gt;" style="rounded=0;whiteSpace=wrap;html=1;fillColor=#4A4100;fontColor=#000000;strokeColor=#B09500;" parent="ExSx5SIZApUU_Iw7rpWn-6" vertex="1">
          <mxGeometry x="-545" y="326" width="120" height="20" as="geometry" />
        </mxCell>
        <mxCell id="dvhGGXUbRXbrGdrFJpqn-19" value="&lt;font color=&quot;#ffffff&quot;&gt;phy-br-provider&lt;/font&gt;" style="rounded=0;whiteSpace=wrap;html=1;fillColor=#4A4100;fontColor=#000000;strokeColor=#B09500;" parent="ExSx5SIZApUU_Iw7rpWn-6" vertex="1">
          <mxGeometry x="-385" y="326" width="120" height="20" as="geometry" />
        </mxCell>
        <mxCell id="dvhGGXUbRXbrGdrFJpqn-21" value="&lt;font color=&quot;#ffffff&quot;&gt;int-br-provider&lt;/font&gt;" style="rounded=0;whiteSpace=wrap;html=1;fillColor=#4A4100;fontColor=#000000;strokeColor=#B09500;" parent="ExSx5SIZApUU_Iw7rpWn-6" vertex="1">
          <mxGeometry x="-152.5" y="326" width="120" height="20" as="geometry" />
        </mxCell>
        <mxCell id="dvhGGXUbRXbrGdrFJpqn-22" value="&lt;font color=&quot;#ffffff&quot;&gt;br-int&lt;/font&gt;" style="rounded=0;whiteSpace=wrap;html=1;fillColor=#4A4100;fontColor=#000000;strokeColor=#B09500;" parent="ExSx5SIZApUU_Iw7rpWn-6" vertex="1">
          <mxGeometry x="7.5" y="326" width="120" height="20" as="geometry" />
        </mxCell>
        <mxCell id="dvhGGXUbRXbrGdrFJpqn-23" value="" style="endArrow=none;html=1;rounded=0;startArrow=none;startFill=0;endFill=0;strokeWidth=4;fillColor=#008a00;strokeColor=#005700;exitX=0.5;exitY=1;exitDx=0;exitDy=0;entryX=0.5;entryY=0;entryDx=0;entryDy=0;" parent="ExSx5SIZApUU_Iw7rpWn-6" source="dvhGGXUbRXbrGdrFJpqn-9" target="dvhGGXUbRXbrGdrFJpqn-18" edge="1">
          <mxGeometry width="50" height="50" relative="1" as="geometry">
            <mxPoint x="-396" y="146" as="sourcePoint" />
            <mxPoint x="-396" y="186" as="targetPoint" />
          </mxGeometry>
        </mxCell>
        <mxCell id="dvhGGXUbRXbrGdrFJpqn-24" value="" style="endArrow=none;html=1;rounded=0;startArrow=none;startFill=0;endFill=0;strokeWidth=4;fillColor=#008a00;strokeColor=#005700;exitX=0.5;exitY=1;exitDx=0;exitDy=0;" parent="ExSx5SIZApUU_Iw7rpWn-6" source="dvhGGXUbRXbrGdrFJpqn-7" target="dvhGGXUbRXbrGdrFJpqn-19" edge="1">
          <mxGeometry width="50" height="50" relative="1" as="geometry">
            <mxPoint x="-475" y="296" as="sourcePoint" />
            <mxPoint x="-475" y="336" as="targetPoint" />
          </mxGeometry>
        </mxCell>
        <mxCell id="dvhGGXUbRXbrGdrFJpqn-25" value="" style="endArrow=none;html=1;rounded=0;startArrow=none;startFill=0;endFill=0;strokeWidth=4;fillColor=#008a00;strokeColor=#005700;exitX=0;exitY=0.5;exitDx=0;exitDy=0;entryX=1;entryY=0.5;entryDx=0;entryDy=0;" parent="ExSx5SIZApUU_Iw7rpWn-6" source="dvhGGXUbRXbrGdrFJpqn-21" target="dvhGGXUbRXbrGdrFJpqn-19" edge="1">
          <mxGeometry width="50" height="50" relative="1" as="geometry">
            <mxPoint x="-315" y="296" as="sourcePoint" />
            <mxPoint x="-315" y="336" as="targetPoint" />
          </mxGeometry>
        </mxCell>
        <mxCell id="dvhGGXUbRXbrGdrFJpqn-26" value="" style="endArrow=none;html=1;rounded=0;startArrow=none;startFill=0;endFill=0;strokeWidth=4;fillColor=#008a00;strokeColor=#005700;exitX=0.5;exitY=1;exitDx=0;exitDy=0;" parent="ExSx5SIZApUU_Iw7rpWn-6" source="dvhGGXUbRXbrGdrFJpqn-16" target="dvhGGXUbRXbrGdrFJpqn-21" edge="1">
          <mxGeometry width="50" height="50" relative="1" as="geometry">
            <mxPoint x="-315" y="296" as="sourcePoint" />
            <mxPoint x="-315" y="336" as="targetPoint" />
          </mxGeometry>
        </mxCell>
        <mxCell id="dvhGGXUbRXbrGdrFJpqn-27" value="" style="endArrow=none;html=1;rounded=0;startArrow=none;startFill=0;endFill=0;strokeWidth=4;fillColor=#008a00;strokeColor=#005700;exitX=0.5;exitY=1;exitDx=0;exitDy=0;entryX=0.5;entryY=0;entryDx=0;entryDy=0;" parent="ExSx5SIZApUU_Iw7rpWn-6" source="dvhGGXUbRXbrGdrFJpqn-15" target="dvhGGXUbRXbrGdrFJpqn-22" edge="1">
          <mxGeometry width="50" height="50" relative="1" as="geometry">
            <mxPoint x="-82" y="296" as="sourcePoint" />
            <mxPoint x="-82" y="336" as="targetPoint" />
          </mxGeometry>
        </mxCell>
        <mxCell id="5NIrijOMDacqgb6EHt3Y-6" value="&lt;font color=&quot;#ffffff&quot;&gt;tapeb4f2e2e-d9&lt;/font&gt;" style="rounded=0;whiteSpace=wrap;html=1;fillColor=#6E6000;fontColor=#000000;strokeColor=#B09500;" parent="ExSx5SIZApUU_Iw7rpWn-6" vertex="1">
          <mxGeometry x="7.5" y="176" width="120" height="20" as="geometry" />
        </mxCell>
        <mxCell id="5NIrijOMDacqgb6EHt3Y-8" value="" style="endArrow=none;html=1;rounded=0;startArrow=none;startFill=0;endFill=0;strokeWidth=4;fillColor=#008a00;strokeColor=#ff8040;exitX=0.712;exitY=0.163;exitDx=0;exitDy=0;entryX=0.5;entryY=0;entryDx=0;entryDy=0;exitPerimeter=0;" parent="ExSx5SIZApUU_Iw7rpWn-6" source="ExSx5SIZApUU_Iw7rpWn-7" target="5NIrijOMDacqgb6EHt3Y-6" edge="1">
          <mxGeometry width="50" height="50" relative="1" as="geometry">
            <mxPoint x="78" y="296" as="sourcePoint" />
            <mxPoint x="78" y="336" as="targetPoint" />
            <Array as="points">
              <mxPoint x="310" y="140" />
              <mxPoint x="68" y="140" />
            </Array>
          </mxGeometry>
        </mxCell>
        <mxCell id="5NIrijOMDacqgb6EHt3Y-10" value="tag 2" style="text;html=1;align=center;verticalAlign=middle;resizable=0;points=[];autosize=1;strokeColor=none;fillColor=none;" parent="ExSx5SIZApUU_Iw7rpWn-6" vertex="1">
          <mxGeometry x="20" y="126" width="50" height="30" as="geometry" />
        </mxCell>
        <mxCell id="3zyf-pbMNHXWRjyrZosJ-3" value="&lt;div&gt;tag 2&lt;br&gt;&lt;/div&gt;&lt;div&gt;&amp;nbsp;&amp;nbsp;&amp;nbsp; ↑&lt;br&gt;&lt;/div&gt;&lt;div&gt;tag 100&lt;br&gt;&lt;/div&gt;" style="text;html=1;whiteSpace=wrap;overflow=hidden;rounded=1;fillColor=#ffe6cc;strokeColor=#d79b00;arcSize=12;" vertex="1" parent="ExSx5SIZApUU_Iw7rpWn-6">
          <mxGeometry x="-190" y="251" width="52" height="50" as="geometry" />
        </mxCell>
        <object label="DHCP名前空間" id="5NIrijOMDacqgb6EHt3Y-1">
          <mxCell style="locked=1;" parent="0" />
        </object>
        <mxCell id="5NIrijOMDacqgb6EHt3Y-2" value="" style="rounded=1;whiteSpace=wrap;html=1;fillColor=#b8d2fa;strokeColor=#6c8ebf;align=center;horizontal=1;" parent="5NIrijOMDacqgb6EHt3Y-1" vertex="1">
          <mxGeometry x="210" y="170" width="450" height="210" as="geometry" />
        </mxCell>
        <mxCell id="5NIrijOMDacqgb6EHt3Y-3" value="&lt;font style=&quot;font-size: 17px;&quot;&gt;qdhcp-fab2345c-5de9-4fda-8342-f0430a9239ea&lt;/font&gt;" style="text;html=1;align=center;verticalAlign=middle;resizable=0;points=[];autosize=1;strokeColor=none;fillColor=none;" parent="5NIrijOMDacqgb6EHt3Y-1" vertex="1">
          <mxGeometry x="270" y="340" width="390" height="30" as="geometry" />
        </mxCell>
        <mxCell id="5NIrijOMDacqgb6EHt3Y-4" value="192.168.100.2" style="text;html=1;align=center;verticalAlign=middle;resizable=0;points=[];autosize=1;strokeColor=none;fillColor=none;" parent="5NIrijOMDacqgb6EHt3Y-1" vertex="1">
          <mxGeometry x="314" y="140" width="100" height="30" as="geometry" />
        </mxCell>
        <mxCell id="5NIrijOMDacqgb6EHt3Y-5" value="&lt;font style=&quot;font-size: 17px;&quot;&gt;DHCP agent&lt;/font&gt;" style="rounded=1;whiteSpace=wrap;html=1;fillColor=#3f86f1;strokeColor=#6c8ebf;align=center;horizontal=1;" parent="5NIrijOMDacqgb6EHt3Y-1" vertex="1">
          <mxGeometry x="360" y="220" width="270" height="90" as="geometry" />
        </mxCell>
        <mxCell id="5NIrijOMDacqgb6EHt3Y-7" value="&lt;font color=&quot;#ffffff&quot;&gt;tapeb4f2e2e-d9&lt;/font&gt;" style="rounded=0;whiteSpace=wrap;html=1;fillColor=#4A4100;fontColor=#000000;strokeColor=#B09500;" parent="5NIrijOMDacqgb6EHt3Y-1" vertex="1">
          <mxGeometry x="250" y="170" width="120" height="20" as="geometry" />
        </mxCell>
      </root>
    </mxGraphModel>
  </diagram>
</mxfile>
